%TF.GenerationSoftware,KiCad,Pcbnew,9.0.4*%
%TF.CreationDate,2025-10-29T17:36:43+05:30*%
%TF.ProjectId,usb_to_3.3v,7573625f-746f-45f3-932e-33762e6b6963,rev?*%
%TF.SameCoordinates,Original*%
%TF.FileFunction,Legend,Bot*%
%TF.FilePolarity,Positive*%
%FSLAX46Y46*%
G04 Gerber Fmt 4.6, Leading zero omitted, Abs format (unit mm)*
G04 Created by KiCad (PCBNEW 9.0.4) date 2025-10-29 17:36:43*
%MOMM*%
%LPD*%
G01*
G04 APERTURE LIST*
%ADD10C,0.125000*%
G04 APERTURE END LIST*
D10*
X157727287Y-94395595D02*
X157727287Y-93595595D01*
X157727287Y-93595595D02*
X157536811Y-93595595D01*
X157536811Y-93595595D02*
X157422525Y-93633690D01*
X157422525Y-93633690D02*
X157346335Y-93709880D01*
X157346335Y-93709880D02*
X157308240Y-93786071D01*
X157308240Y-93786071D02*
X157270144Y-93938452D01*
X157270144Y-93938452D02*
X157270144Y-94052738D01*
X157270144Y-94052738D02*
X157308240Y-94205119D01*
X157308240Y-94205119D02*
X157346335Y-94281309D01*
X157346335Y-94281309D02*
X157422525Y-94357500D01*
X157422525Y-94357500D02*
X157536811Y-94395595D01*
X157536811Y-94395595D02*
X157727287Y-94395595D01*
X156927287Y-93976547D02*
X156660621Y-93976547D01*
X156546335Y-94395595D02*
X156927287Y-94395595D01*
X156927287Y-94395595D02*
X156927287Y-93595595D01*
X156927287Y-93595595D02*
X156546335Y-93595595D01*
X156241573Y-94357500D02*
X156127287Y-94395595D01*
X156127287Y-94395595D02*
X155936811Y-94395595D01*
X155936811Y-94395595D02*
X155860620Y-94357500D01*
X155860620Y-94357500D02*
X155822525Y-94319404D01*
X155822525Y-94319404D02*
X155784430Y-94243214D01*
X155784430Y-94243214D02*
X155784430Y-94167023D01*
X155784430Y-94167023D02*
X155822525Y-94090833D01*
X155822525Y-94090833D02*
X155860620Y-94052738D01*
X155860620Y-94052738D02*
X155936811Y-94014642D01*
X155936811Y-94014642D02*
X156089192Y-93976547D01*
X156089192Y-93976547D02*
X156165382Y-93938452D01*
X156165382Y-93938452D02*
X156203477Y-93900357D01*
X156203477Y-93900357D02*
X156241573Y-93824166D01*
X156241573Y-93824166D02*
X156241573Y-93747976D01*
X156241573Y-93747976D02*
X156203477Y-93671785D01*
X156203477Y-93671785D02*
X156165382Y-93633690D01*
X156165382Y-93633690D02*
X156089192Y-93595595D01*
X156089192Y-93595595D02*
X155898715Y-93595595D01*
X155898715Y-93595595D02*
X155784430Y-93633690D01*
X155441572Y-94395595D02*
X155441572Y-93595595D01*
X154641573Y-93633690D02*
X154717763Y-93595595D01*
X154717763Y-93595595D02*
X154832049Y-93595595D01*
X154832049Y-93595595D02*
X154946335Y-93633690D01*
X154946335Y-93633690D02*
X155022525Y-93709880D01*
X155022525Y-93709880D02*
X155060620Y-93786071D01*
X155060620Y-93786071D02*
X155098716Y-93938452D01*
X155098716Y-93938452D02*
X155098716Y-94052738D01*
X155098716Y-94052738D02*
X155060620Y-94205119D01*
X155060620Y-94205119D02*
X155022525Y-94281309D01*
X155022525Y-94281309D02*
X154946335Y-94357500D01*
X154946335Y-94357500D02*
X154832049Y-94395595D01*
X154832049Y-94395595D02*
X154755858Y-94395595D01*
X154755858Y-94395595D02*
X154641573Y-94357500D01*
X154641573Y-94357500D02*
X154603477Y-94319404D01*
X154603477Y-94319404D02*
X154603477Y-94052738D01*
X154603477Y-94052738D02*
X154755858Y-94052738D01*
X154260620Y-94395595D02*
X154260620Y-93595595D01*
X154260620Y-93595595D02*
X153803477Y-94395595D01*
X153803477Y-94395595D02*
X153803477Y-93595595D01*
X153422525Y-93976547D02*
X153155859Y-93976547D01*
X153041573Y-94395595D02*
X153422525Y-94395595D01*
X153422525Y-94395595D02*
X153422525Y-93595595D01*
X153422525Y-93595595D02*
X153041573Y-93595595D01*
X152698715Y-94395595D02*
X152698715Y-93595595D01*
X152698715Y-93595595D02*
X152508239Y-93595595D01*
X152508239Y-93595595D02*
X152393953Y-93633690D01*
X152393953Y-93633690D02*
X152317763Y-93709880D01*
X152317763Y-93709880D02*
X152279668Y-93786071D01*
X152279668Y-93786071D02*
X152241572Y-93938452D01*
X152241572Y-93938452D02*
X152241572Y-94052738D01*
X152241572Y-94052738D02*
X152279668Y-94205119D01*
X152279668Y-94205119D02*
X152317763Y-94281309D01*
X152317763Y-94281309D02*
X152393953Y-94357500D01*
X152393953Y-94357500D02*
X152508239Y-94395595D01*
X152508239Y-94395595D02*
X152698715Y-94395595D01*
X151022525Y-93976547D02*
X150908239Y-94014642D01*
X150908239Y-94014642D02*
X150870144Y-94052738D01*
X150870144Y-94052738D02*
X150832048Y-94128928D01*
X150832048Y-94128928D02*
X150832048Y-94243214D01*
X150832048Y-94243214D02*
X150870144Y-94319404D01*
X150870144Y-94319404D02*
X150908239Y-94357500D01*
X150908239Y-94357500D02*
X150984429Y-94395595D01*
X150984429Y-94395595D02*
X151289191Y-94395595D01*
X151289191Y-94395595D02*
X151289191Y-93595595D01*
X151289191Y-93595595D02*
X151022525Y-93595595D01*
X151022525Y-93595595D02*
X150946334Y-93633690D01*
X150946334Y-93633690D02*
X150908239Y-93671785D01*
X150908239Y-93671785D02*
X150870144Y-93747976D01*
X150870144Y-93747976D02*
X150870144Y-93824166D01*
X150870144Y-93824166D02*
X150908239Y-93900357D01*
X150908239Y-93900357D02*
X150946334Y-93938452D01*
X150946334Y-93938452D02*
X151022525Y-93976547D01*
X151022525Y-93976547D02*
X151289191Y-93976547D01*
X150336810Y-94014642D02*
X150336810Y-94395595D01*
X150603477Y-93595595D02*
X150336810Y-94014642D01*
X150336810Y-94014642D02*
X150070144Y-93595595D01*
X149232049Y-94357500D02*
X149117763Y-94395595D01*
X149117763Y-94395595D02*
X148927287Y-94395595D01*
X148927287Y-94395595D02*
X148851096Y-94357500D01*
X148851096Y-94357500D02*
X148813001Y-94319404D01*
X148813001Y-94319404D02*
X148774906Y-94243214D01*
X148774906Y-94243214D02*
X148774906Y-94167023D01*
X148774906Y-94167023D02*
X148813001Y-94090833D01*
X148813001Y-94090833D02*
X148851096Y-94052738D01*
X148851096Y-94052738D02*
X148927287Y-94014642D01*
X148927287Y-94014642D02*
X149079668Y-93976547D01*
X149079668Y-93976547D02*
X149155858Y-93938452D01*
X149155858Y-93938452D02*
X149193953Y-93900357D01*
X149193953Y-93900357D02*
X149232049Y-93824166D01*
X149232049Y-93824166D02*
X149232049Y-93747976D01*
X149232049Y-93747976D02*
X149193953Y-93671785D01*
X149193953Y-93671785D02*
X149155858Y-93633690D01*
X149155858Y-93633690D02*
X149079668Y-93595595D01*
X149079668Y-93595595D02*
X148889191Y-93595595D01*
X148889191Y-93595595D02*
X148774906Y-93633690D01*
X148470144Y-94167023D02*
X148089191Y-94167023D01*
X148546334Y-94395595D02*
X148279667Y-93595595D01*
X148279667Y-93595595D02*
X148013001Y-94395595D01*
X147746334Y-94395595D02*
X147746334Y-93595595D01*
X147746334Y-93595595D02*
X147289191Y-94395595D01*
X147289191Y-94395595D02*
X147289191Y-93595595D01*
X146679668Y-93595595D02*
X146679668Y-94167023D01*
X146679668Y-94167023D02*
X146717763Y-94281309D01*
X146717763Y-94281309D02*
X146793954Y-94357500D01*
X146793954Y-94357500D02*
X146908239Y-94395595D01*
X146908239Y-94395595D02*
X146984430Y-94395595D01*
X146298715Y-94395595D02*
X146298715Y-93595595D01*
X146032049Y-93595595D02*
X145574906Y-93595595D01*
X145803478Y-94395595D02*
X145803478Y-93595595D01*
X145308239Y-94395595D02*
X145308239Y-93595595D01*
X145308239Y-93976547D02*
X144851096Y-93976547D01*
X144851096Y-94395595D02*
X144851096Y-93595595D01*
X143860620Y-94395595D02*
X143860620Y-93595595D01*
X143403477Y-94395595D02*
X143746335Y-93938452D01*
X143403477Y-93595595D02*
X143860620Y-94052738D01*
X143060620Y-93595595D02*
X143060620Y-94243214D01*
X143060620Y-94243214D02*
X143022525Y-94319404D01*
X143022525Y-94319404D02*
X142984430Y-94357500D01*
X142984430Y-94357500D02*
X142908239Y-94395595D01*
X142908239Y-94395595D02*
X142755858Y-94395595D01*
X142755858Y-94395595D02*
X142679668Y-94357500D01*
X142679668Y-94357500D02*
X142641573Y-94319404D01*
X142641573Y-94319404D02*
X142603477Y-94243214D01*
X142603477Y-94243214D02*
X142603477Y-93595595D01*
X142222525Y-94395595D02*
X142222525Y-93595595D01*
X142222525Y-93595595D02*
X141955859Y-94167023D01*
X141955859Y-94167023D02*
X141689192Y-93595595D01*
X141689192Y-93595595D02*
X141689192Y-94395595D01*
X141346335Y-94167023D02*
X140965382Y-94167023D01*
X141422525Y-94395595D02*
X141155858Y-93595595D01*
X141155858Y-93595595D02*
X140889192Y-94395595D01*
X140165382Y-94395595D02*
X140432049Y-94014642D01*
X140622525Y-94395595D02*
X140622525Y-93595595D01*
X140622525Y-93595595D02*
X140317763Y-93595595D01*
X140317763Y-93595595D02*
X140241573Y-93633690D01*
X140241573Y-93633690D02*
X140203478Y-93671785D01*
X140203478Y-93671785D02*
X140165382Y-93747976D01*
X140165382Y-93747976D02*
X140165382Y-93862261D01*
X140165382Y-93862261D02*
X140203478Y-93938452D01*
X140203478Y-93938452D02*
X140241573Y-93976547D01*
X140241573Y-93976547D02*
X140317763Y-94014642D01*
X140317763Y-94014642D02*
X140622525Y-94014642D01*
M02*
