%TF.GenerationSoftware,KiCad,Pcbnew,9.0.4*%
%TF.CreationDate,2025-10-29T17:36:43+05:30*%
%TF.ProjectId,usb_to_3.3v,7573625f-746f-45f3-932e-33762e6b6963,rev?*%
%TF.SameCoordinates,Original*%
%TF.FileFunction,Legend,Top*%
%TF.FilePolarity,Positive*%
%FSLAX46Y46*%
G04 Gerber Fmt 4.6, Leading zero omitted, Abs format (unit mm)*
G04 Created by KiCad (PCBNEW 9.0.4) date 2025-10-29 17:36:43*
%MOMM*%
%LPD*%
G01*
G04 APERTURE LIST*
%ADD10C,0.190500*%
%ADD11C,0.150000*%
%ADD12C,0.120000*%
G04 APERTURE END LIST*
D10*
X152306756Y-89087427D02*
X152887328Y-89087427D01*
X152597042Y-89392189D02*
X152597042Y-88782665D01*
X153177614Y-88592189D02*
X153649328Y-88592189D01*
X153649328Y-88592189D02*
X153395328Y-88896951D01*
X153395328Y-88896951D02*
X153504185Y-88896951D01*
X153504185Y-88896951D02*
X153576757Y-88935046D01*
X153576757Y-88935046D02*
X153613042Y-88973141D01*
X153613042Y-88973141D02*
X153649328Y-89049332D01*
X153649328Y-89049332D02*
X153649328Y-89239808D01*
X153649328Y-89239808D02*
X153613042Y-89315998D01*
X153613042Y-89315998D02*
X153576757Y-89354094D01*
X153576757Y-89354094D02*
X153504185Y-89392189D01*
X153504185Y-89392189D02*
X153286471Y-89392189D01*
X153286471Y-89392189D02*
X153213899Y-89354094D01*
X153213899Y-89354094D02*
X153177614Y-89315998D01*
X153975899Y-89315998D02*
X154012185Y-89354094D01*
X154012185Y-89354094D02*
X153975899Y-89392189D01*
X153975899Y-89392189D02*
X153939613Y-89354094D01*
X153939613Y-89354094D02*
X153975899Y-89315998D01*
X153975899Y-89315998D02*
X153975899Y-89392189D01*
X154266185Y-88592189D02*
X154737899Y-88592189D01*
X154737899Y-88592189D02*
X154483899Y-88896951D01*
X154483899Y-88896951D02*
X154592756Y-88896951D01*
X154592756Y-88896951D02*
X154665328Y-88935046D01*
X154665328Y-88935046D02*
X154701613Y-88973141D01*
X154701613Y-88973141D02*
X154737899Y-89049332D01*
X154737899Y-89049332D02*
X154737899Y-89239808D01*
X154737899Y-89239808D02*
X154701613Y-89315998D01*
X154701613Y-89315998D02*
X154665328Y-89354094D01*
X154665328Y-89354094D02*
X154592756Y-89392189D01*
X154592756Y-89392189D02*
X154375042Y-89392189D01*
X154375042Y-89392189D02*
X154302470Y-89354094D01*
X154302470Y-89354094D02*
X154266185Y-89315998D01*
X154955613Y-88592189D02*
X155209613Y-89392189D01*
X155209613Y-89392189D02*
X155463613Y-88592189D01*
X150205899Y-88630284D02*
X150133328Y-88592189D01*
X150133328Y-88592189D02*
X150024470Y-88592189D01*
X150024470Y-88592189D02*
X149915613Y-88630284D01*
X149915613Y-88630284D02*
X149843042Y-88706474D01*
X149843042Y-88706474D02*
X149806756Y-88782665D01*
X149806756Y-88782665D02*
X149770470Y-88935046D01*
X149770470Y-88935046D02*
X149770470Y-89049332D01*
X149770470Y-89049332D02*
X149806756Y-89201713D01*
X149806756Y-89201713D02*
X149843042Y-89277903D01*
X149843042Y-89277903D02*
X149915613Y-89354094D01*
X149915613Y-89354094D02*
X150024470Y-89392189D01*
X150024470Y-89392189D02*
X150097042Y-89392189D01*
X150097042Y-89392189D02*
X150205899Y-89354094D01*
X150205899Y-89354094D02*
X150242185Y-89315998D01*
X150242185Y-89315998D02*
X150242185Y-89049332D01*
X150242185Y-89049332D02*
X150097042Y-89049332D01*
X150568756Y-89392189D02*
X150568756Y-88592189D01*
X150568756Y-88592189D02*
X151004185Y-89392189D01*
X151004185Y-89392189D02*
X151004185Y-88592189D01*
X151367042Y-89392189D02*
X151367042Y-88592189D01*
X151367042Y-88592189D02*
X151548471Y-88592189D01*
X151548471Y-88592189D02*
X151657328Y-88630284D01*
X151657328Y-88630284D02*
X151729899Y-88706474D01*
X151729899Y-88706474D02*
X151766185Y-88782665D01*
X151766185Y-88782665D02*
X151802471Y-88935046D01*
X151802471Y-88935046D02*
X151802471Y-89049332D01*
X151802471Y-89049332D02*
X151766185Y-89201713D01*
X151766185Y-89201713D02*
X151729899Y-89277903D01*
X151729899Y-89277903D02*
X151657328Y-89354094D01*
X151657328Y-89354094D02*
X151548471Y-89392189D01*
X151548471Y-89392189D02*
X151367042Y-89392189D01*
X143205899Y-88630284D02*
X143133328Y-88592189D01*
X143133328Y-88592189D02*
X143024470Y-88592189D01*
X143024470Y-88592189D02*
X142915613Y-88630284D01*
X142915613Y-88630284D02*
X142843042Y-88706474D01*
X142843042Y-88706474D02*
X142806756Y-88782665D01*
X142806756Y-88782665D02*
X142770470Y-88935046D01*
X142770470Y-88935046D02*
X142770470Y-89049332D01*
X142770470Y-89049332D02*
X142806756Y-89201713D01*
X142806756Y-89201713D02*
X142843042Y-89277903D01*
X142843042Y-89277903D02*
X142915613Y-89354094D01*
X142915613Y-89354094D02*
X143024470Y-89392189D01*
X143024470Y-89392189D02*
X143097042Y-89392189D01*
X143097042Y-89392189D02*
X143205899Y-89354094D01*
X143205899Y-89354094D02*
X143242185Y-89315998D01*
X143242185Y-89315998D02*
X143242185Y-89049332D01*
X143242185Y-89049332D02*
X143097042Y-89049332D01*
X143568756Y-89392189D02*
X143568756Y-88592189D01*
X143568756Y-88592189D02*
X144004185Y-89392189D01*
X144004185Y-89392189D02*
X144004185Y-88592189D01*
X144367042Y-89392189D02*
X144367042Y-88592189D01*
X144367042Y-88592189D02*
X144548471Y-88592189D01*
X144548471Y-88592189D02*
X144657328Y-88630284D01*
X144657328Y-88630284D02*
X144729899Y-88706474D01*
X144729899Y-88706474D02*
X144766185Y-88782665D01*
X144766185Y-88782665D02*
X144802471Y-88935046D01*
X144802471Y-88935046D02*
X144802471Y-89049332D01*
X144802471Y-89049332D02*
X144766185Y-89201713D01*
X144766185Y-89201713D02*
X144729899Y-89277903D01*
X144729899Y-89277903D02*
X144657328Y-89354094D01*
X144657328Y-89354094D02*
X144548471Y-89392189D01*
X144548471Y-89392189D02*
X144367042Y-89392189D01*
X145806756Y-89087427D02*
X146387328Y-89087427D01*
X146097042Y-89392189D02*
X146097042Y-88782665D01*
X147113042Y-88592189D02*
X146750185Y-88592189D01*
X146750185Y-88592189D02*
X146713899Y-88973141D01*
X146713899Y-88973141D02*
X146750185Y-88935046D01*
X146750185Y-88935046D02*
X146822757Y-88896951D01*
X146822757Y-88896951D02*
X147004185Y-88896951D01*
X147004185Y-88896951D02*
X147076757Y-88935046D01*
X147076757Y-88935046D02*
X147113042Y-88973141D01*
X147113042Y-88973141D02*
X147149328Y-89049332D01*
X147149328Y-89049332D02*
X147149328Y-89239808D01*
X147149328Y-89239808D02*
X147113042Y-89315998D01*
X147113042Y-89315998D02*
X147076757Y-89354094D01*
X147076757Y-89354094D02*
X147004185Y-89392189D01*
X147004185Y-89392189D02*
X146822757Y-89392189D01*
X146822757Y-89392189D02*
X146750185Y-89354094D01*
X146750185Y-89354094D02*
X146713899Y-89315998D01*
X147367042Y-88592189D02*
X147621042Y-89392189D01*
X147621042Y-89392189D02*
X147875042Y-88592189D01*
D11*
X155609819Y-91448333D02*
X156324104Y-91448333D01*
X156324104Y-91448333D02*
X156466961Y-91495952D01*
X156466961Y-91495952D02*
X156562200Y-91591190D01*
X156562200Y-91591190D02*
X156609819Y-91734047D01*
X156609819Y-91734047D02*
X156609819Y-91829285D01*
X155943152Y-90543571D02*
X156609819Y-90543571D01*
X155562200Y-90781666D02*
X156276485Y-91019761D01*
X156276485Y-91019761D02*
X156276485Y-90400714D01*
X148334819Y-91333333D02*
X149049104Y-91333333D01*
X149049104Y-91333333D02*
X149191961Y-91380952D01*
X149191961Y-91380952D02*
X149287200Y-91476190D01*
X149287200Y-91476190D02*
X149334819Y-91619047D01*
X149334819Y-91619047D02*
X149334819Y-91714285D01*
X148334819Y-90952380D02*
X148334819Y-90333333D01*
X148334819Y-90333333D02*
X148715771Y-90666666D01*
X148715771Y-90666666D02*
X148715771Y-90523809D01*
X148715771Y-90523809D02*
X148763390Y-90428571D01*
X148763390Y-90428571D02*
X148811009Y-90380952D01*
X148811009Y-90380952D02*
X148906247Y-90333333D01*
X148906247Y-90333333D02*
X149144342Y-90333333D01*
X149144342Y-90333333D02*
X149239580Y-90380952D01*
X149239580Y-90380952D02*
X149287200Y-90428571D01*
X149287200Y-90428571D02*
X149334819Y-90523809D01*
X149334819Y-90523809D02*
X149334819Y-90809523D01*
X149334819Y-90809523D02*
X149287200Y-90904761D01*
X149287200Y-90904761D02*
X149239580Y-90952380D01*
X150238095Y-85404819D02*
X150238095Y-86214342D01*
X150238095Y-86214342D02*
X150285714Y-86309580D01*
X150285714Y-86309580D02*
X150333333Y-86357200D01*
X150333333Y-86357200D02*
X150428571Y-86404819D01*
X150428571Y-86404819D02*
X150619047Y-86404819D01*
X150619047Y-86404819D02*
X150714285Y-86357200D01*
X150714285Y-86357200D02*
X150761904Y-86309580D01*
X150761904Y-86309580D02*
X150809523Y-86214342D01*
X150809523Y-86214342D02*
X150809523Y-85404819D01*
X151809523Y-86404819D02*
X151238095Y-86404819D01*
X151523809Y-86404819D02*
X151523809Y-85404819D01*
X151523809Y-85404819D02*
X151428571Y-85547676D01*
X151428571Y-85547676D02*
X151333333Y-85642914D01*
X151333333Y-85642914D02*
X151238095Y-85690533D01*
X139804819Y-86079166D02*
X139328628Y-86412499D01*
X139804819Y-86650594D02*
X138804819Y-86650594D01*
X138804819Y-86650594D02*
X138804819Y-86269642D01*
X138804819Y-86269642D02*
X138852438Y-86174404D01*
X138852438Y-86174404D02*
X138900057Y-86126785D01*
X138900057Y-86126785D02*
X138995295Y-86079166D01*
X138995295Y-86079166D02*
X139138152Y-86079166D01*
X139138152Y-86079166D02*
X139233390Y-86126785D01*
X139233390Y-86126785D02*
X139281009Y-86174404D01*
X139281009Y-86174404D02*
X139328628Y-86269642D01*
X139328628Y-86269642D02*
X139328628Y-86650594D01*
X138900057Y-85698213D02*
X138852438Y-85650594D01*
X138852438Y-85650594D02*
X138804819Y-85555356D01*
X138804819Y-85555356D02*
X138804819Y-85317261D01*
X138804819Y-85317261D02*
X138852438Y-85222023D01*
X138852438Y-85222023D02*
X138900057Y-85174404D01*
X138900057Y-85174404D02*
X138995295Y-85126785D01*
X138995295Y-85126785D02*
X139090533Y-85126785D01*
X139090533Y-85126785D02*
X139233390Y-85174404D01*
X139233390Y-85174404D02*
X139804819Y-85745832D01*
X139804819Y-85745832D02*
X139804819Y-85126785D01*
X159104819Y-86166666D02*
X158628628Y-86499999D01*
X159104819Y-86738094D02*
X158104819Y-86738094D01*
X158104819Y-86738094D02*
X158104819Y-86357142D01*
X158104819Y-86357142D02*
X158152438Y-86261904D01*
X158152438Y-86261904D02*
X158200057Y-86214285D01*
X158200057Y-86214285D02*
X158295295Y-86166666D01*
X158295295Y-86166666D02*
X158438152Y-86166666D01*
X158438152Y-86166666D02*
X158533390Y-86214285D01*
X158533390Y-86214285D02*
X158581009Y-86261904D01*
X158581009Y-86261904D02*
X158628628Y-86357142D01*
X158628628Y-86357142D02*
X158628628Y-86738094D01*
X159104819Y-85214285D02*
X159104819Y-85785713D01*
X159104819Y-85499999D02*
X158104819Y-85499999D01*
X158104819Y-85499999D02*
X158247676Y-85595237D01*
X158247676Y-85595237D02*
X158342914Y-85690475D01*
X158342914Y-85690475D02*
X158390533Y-85785713D01*
X149333333Y-79545180D02*
X149333333Y-78830895D01*
X149333333Y-78830895D02*
X149380952Y-78688038D01*
X149380952Y-78688038D02*
X149476190Y-78592800D01*
X149476190Y-78592800D02*
X149619047Y-78545180D01*
X149619047Y-78545180D02*
X149714285Y-78545180D01*
X148333333Y-78545180D02*
X148904761Y-78545180D01*
X148619047Y-78545180D02*
X148619047Y-79545180D01*
X148619047Y-79545180D02*
X148714285Y-79402323D01*
X148714285Y-79402323D02*
X148809523Y-79307085D01*
X148809523Y-79307085D02*
X148904761Y-79259466D01*
X155039580Y-86116666D02*
X155087200Y-86164285D01*
X155087200Y-86164285D02*
X155134819Y-86307142D01*
X155134819Y-86307142D02*
X155134819Y-86402380D01*
X155134819Y-86402380D02*
X155087200Y-86545237D01*
X155087200Y-86545237D02*
X154991961Y-86640475D01*
X154991961Y-86640475D02*
X154896723Y-86688094D01*
X154896723Y-86688094D02*
X154706247Y-86735713D01*
X154706247Y-86735713D02*
X154563390Y-86735713D01*
X154563390Y-86735713D02*
X154372914Y-86688094D01*
X154372914Y-86688094D02*
X154277676Y-86640475D01*
X154277676Y-86640475D02*
X154182438Y-86545237D01*
X154182438Y-86545237D02*
X154134819Y-86402380D01*
X154134819Y-86402380D02*
X154134819Y-86307142D01*
X154134819Y-86307142D02*
X154182438Y-86164285D01*
X154182438Y-86164285D02*
X154230057Y-86116666D01*
X154230057Y-85735713D02*
X154182438Y-85688094D01*
X154182438Y-85688094D02*
X154134819Y-85592856D01*
X154134819Y-85592856D02*
X154134819Y-85354761D01*
X154134819Y-85354761D02*
X154182438Y-85259523D01*
X154182438Y-85259523D02*
X154230057Y-85211904D01*
X154230057Y-85211904D02*
X154325295Y-85164285D01*
X154325295Y-85164285D02*
X154420533Y-85164285D01*
X154420533Y-85164285D02*
X154563390Y-85211904D01*
X154563390Y-85211904D02*
X155134819Y-85783332D01*
X155134819Y-85783332D02*
X155134819Y-85164285D01*
X143679580Y-86166666D02*
X143727200Y-86214285D01*
X143727200Y-86214285D02*
X143774819Y-86357142D01*
X143774819Y-86357142D02*
X143774819Y-86452380D01*
X143774819Y-86452380D02*
X143727200Y-86595237D01*
X143727200Y-86595237D02*
X143631961Y-86690475D01*
X143631961Y-86690475D02*
X143536723Y-86738094D01*
X143536723Y-86738094D02*
X143346247Y-86785713D01*
X143346247Y-86785713D02*
X143203390Y-86785713D01*
X143203390Y-86785713D02*
X143012914Y-86738094D01*
X143012914Y-86738094D02*
X142917676Y-86690475D01*
X142917676Y-86690475D02*
X142822438Y-86595237D01*
X142822438Y-86595237D02*
X142774819Y-86452380D01*
X142774819Y-86452380D02*
X142774819Y-86357142D01*
X142774819Y-86357142D02*
X142822438Y-86214285D01*
X142822438Y-86214285D02*
X142870057Y-86166666D01*
X143774819Y-85214285D02*
X143774819Y-85785713D01*
X143774819Y-85499999D02*
X142774819Y-85499999D01*
X142774819Y-85499999D02*
X142917676Y-85595237D01*
X142917676Y-85595237D02*
X143012914Y-85690475D01*
X143012914Y-85690475D02*
X143060533Y-85785713D01*
D12*
%TO.C,J4*%
X155155000Y-89735000D02*
X155155000Y-91115000D01*
X153775000Y-89735000D02*
X155155000Y-89735000D01*
X152505000Y-89735000D02*
X149855000Y-89735000D01*
X152505000Y-89735000D02*
X152505000Y-92495000D01*
X149855000Y-89735000D02*
X149855000Y-92495000D01*
X152505000Y-92495000D02*
X149855000Y-92495000D01*
%TO.C,J3*%
X147880000Y-89620000D02*
X147880000Y-91000000D01*
X146500000Y-89620000D02*
X147880000Y-89620000D01*
X145230000Y-89620000D02*
X142580000Y-89620000D01*
X145230000Y-89620000D02*
X145230000Y-92380000D01*
X142580000Y-89620000D02*
X142580000Y-92380000D01*
X145230000Y-92380000D02*
X142580000Y-92380000D01*
%TO.C,U1*%
X149000000Y-84390000D02*
X148200000Y-84390000D01*
X149000000Y-84390000D02*
X149800000Y-84390000D01*
X149000000Y-87510000D02*
X148200000Y-87510000D01*
X149000000Y-87510000D02*
X149800000Y-87510000D01*
X147700000Y-84440000D02*
X147460000Y-84110000D01*
X147940000Y-84110000D01*
X147700000Y-84440000D01*
G36*
X147700000Y-84440000D02*
G01*
X147460000Y-84110000D01*
X147940000Y-84110000D01*
X147700000Y-84440000D01*
G37*
%TO.C,R2*%
X140265000Y-86139564D02*
X140265000Y-85685436D01*
X141735000Y-86139564D02*
X141735000Y-85685436D01*
%TO.C,R1*%
X157735000Y-85772936D02*
X157735000Y-86227064D01*
X156265000Y-85772936D02*
X156265000Y-86227064D01*
%TO.C,J1*%
X153600000Y-81040000D02*
X153600000Y-79410000D01*
X144400000Y-81040000D02*
X144400000Y-79410000D01*
%TO.C,C2*%
X153735000Y-85688748D02*
X153735000Y-86211252D01*
X152265000Y-85688748D02*
X152265000Y-86211252D01*
%TO.C,C1*%
X144265000Y-86261252D02*
X144265000Y-85738748D01*
X145735000Y-86261252D02*
X145735000Y-85738748D01*
%TD*%
M02*
