%TF.GenerationSoftware,KiCad,Pcbnew,9.0.4*%
%TF.CreationDate,2025-10-29T17:36:43+05:30*%
%TF.ProjectId,usb_to_3.3v,7573625f-746f-45f3-932e-33762e6b6963,rev?*%
%TF.SameCoordinates,Original*%
%TF.FileFunction,Copper,L2,Bot*%
%TF.FilePolarity,Positive*%
%FSLAX46Y46*%
G04 Gerber Fmt 4.6, Leading zero omitted, Abs format (unit mm)*
G04 Created by KiCad (PCBNEW 9.0.4) date 2025-10-29 17:36:43*
%MOMM*%
%LPD*%
G01*
G04 APERTURE LIST*
%TA.AperFunction,ComponentPad*%
%ADD10R,1.700000X1.700000*%
%TD*%
%TA.AperFunction,ComponentPad*%
%ADD11C,1.700000*%
%TD*%
%TA.AperFunction,ViaPad*%
%ADD12C,0.800000*%
%TD*%
%TA.AperFunction,Conductor*%
%ADD13C,0.508000*%
%TD*%
%TA.AperFunction,Conductor*%
%ADD14C,0.203200*%
%TD*%
G04 APERTURE END LIST*
D10*
%TO.P,J4,1,Pin_1*%
%TO.N,+3.3V*%
X153775000Y-91115000D03*
D11*
%TO.P,J4,2,Pin_2*%
%TO.N,GND*%
X151235000Y-91115000D03*
%TD*%
D10*
%TO.P,J3,1,Pin_1*%
%TO.N,+5V*%
X146500000Y-91000000D03*
D11*
%TO.P,J3,2,Pin_2*%
%TO.N,GND*%
X143960000Y-91000000D03*
%TD*%
D12*
%TO.N,GND*%
X153000000Y-88500000D03*
%TO.N,Net-(J1-CC2)*%
X158500000Y-83500000D03*
X152000000Y-80000000D03*
%TO.N,+5V*%
X146000000Y-80000000D03*
X150500000Y-80000000D03*
%TD*%
D13*
%TO.N,GND*%
X153000000Y-88500000D02*
X153000000Y-89350000D01*
X153000000Y-89350000D02*
X151235000Y-91115000D01*
X150041800Y-92308200D02*
X145268200Y-92308200D01*
X145268200Y-92308200D02*
X143960000Y-91000000D01*
X151235000Y-91115000D02*
X150041800Y-92308200D01*
D14*
%TO.N,Net-(J1-CC2)*%
X155500000Y-83500000D02*
X158500000Y-83500000D01*
X152000000Y-80000000D02*
X155500000Y-83500000D01*
D13*
%TO.N,+5V*%
X146000000Y-80000000D02*
X150500000Y-80000000D01*
%TD*%
%TA.AperFunction,Conductor*%
%TO.N,GND*%
G36*
X161926539Y-76036185D02*
G01*
X161972294Y-76088989D01*
X161983500Y-76140500D01*
X161983500Y-94359500D01*
X161963815Y-94426539D01*
X161911011Y-94472294D01*
X161859500Y-94483500D01*
X136140500Y-94483500D01*
X136073461Y-94463815D01*
X136027706Y-94411011D01*
X136016500Y-94359500D01*
X136016500Y-91885258D01*
X136749500Y-91885258D01*
X136749500Y-92114741D01*
X136774446Y-92304215D01*
X136779452Y-92342238D01*
X136812480Y-92465500D01*
X136838842Y-92563887D01*
X136926650Y-92775876D01*
X136926657Y-92775890D01*
X137041392Y-92974617D01*
X137181081Y-93156661D01*
X137181089Y-93156670D01*
X137343330Y-93318911D01*
X137343338Y-93318918D01*
X137525382Y-93458607D01*
X137525385Y-93458608D01*
X137525388Y-93458611D01*
X137724112Y-93573344D01*
X137724117Y-93573346D01*
X137724123Y-93573349D01*
X137815480Y-93611190D01*
X137936113Y-93661158D01*
X138157762Y-93720548D01*
X138385266Y-93750500D01*
X138385273Y-93750500D01*
X138614727Y-93750500D01*
X138614734Y-93750500D01*
X138842238Y-93720548D01*
X139063887Y-93661158D01*
X139275888Y-93573344D01*
X139474612Y-93458611D01*
X139656661Y-93318919D01*
X139656665Y-93318914D01*
X139656670Y-93318911D01*
X139818911Y-93156670D01*
X139818914Y-93156665D01*
X139818919Y-93156661D01*
X139958611Y-92974612D01*
X140073344Y-92775888D01*
X140161158Y-92563887D01*
X140220548Y-92342238D01*
X140250500Y-92114734D01*
X140250500Y-91885266D01*
X140220548Y-91657762D01*
X140161158Y-91436113D01*
X140073344Y-91224112D01*
X139958611Y-91025388D01*
X139857603Y-90893753D01*
X142610000Y-90893753D01*
X142610000Y-91106246D01*
X142643242Y-91316127D01*
X142643242Y-91316130D01*
X142708904Y-91518217D01*
X142805375Y-91707550D01*
X142844728Y-91761716D01*
X143477036Y-91129407D01*
X143494075Y-91192993D01*
X143559901Y-91307007D01*
X143652993Y-91400099D01*
X143767007Y-91465925D01*
X143830590Y-91482962D01*
X143198282Y-92115269D01*
X143198282Y-92115270D01*
X143252449Y-92154624D01*
X143441782Y-92251095D01*
X143643870Y-92316757D01*
X143853754Y-92350000D01*
X144066246Y-92350000D01*
X144276127Y-92316757D01*
X144276130Y-92316757D01*
X144478217Y-92251095D01*
X144667554Y-92154622D01*
X144721716Y-92115270D01*
X144721717Y-92115270D01*
X144089408Y-91482962D01*
X144152993Y-91465925D01*
X144267007Y-91400099D01*
X144360099Y-91307007D01*
X144425925Y-91192993D01*
X144442962Y-91129408D01*
X145113181Y-91799628D01*
X145146666Y-91860951D01*
X145149500Y-91887300D01*
X145149500Y-91897865D01*
X145149501Y-91897876D01*
X145155908Y-91957483D01*
X145206202Y-92092328D01*
X145206206Y-92092335D01*
X145292452Y-92207544D01*
X145292455Y-92207547D01*
X145407664Y-92293793D01*
X145407671Y-92293797D01*
X145542517Y-92344091D01*
X145542516Y-92344091D01*
X145549444Y-92344835D01*
X145602127Y-92350500D01*
X147397872Y-92350499D01*
X147457483Y-92344091D01*
X147592331Y-92293796D01*
X147707546Y-92207546D01*
X147735047Y-92170809D01*
X147781543Y-92108700D01*
X147793793Y-92092335D01*
X147793792Y-92092335D01*
X147793796Y-92092331D01*
X147844091Y-91957483D01*
X147850500Y-91897873D01*
X147850499Y-91008753D01*
X149885000Y-91008753D01*
X149885000Y-91221246D01*
X149918242Y-91431127D01*
X149918242Y-91431130D01*
X149983904Y-91633217D01*
X150080375Y-91822550D01*
X150119728Y-91876716D01*
X150752037Y-91244408D01*
X150769075Y-91307993D01*
X150834901Y-91422007D01*
X150927993Y-91515099D01*
X151042007Y-91580925D01*
X151105590Y-91597962D01*
X150473282Y-92230269D01*
X150473282Y-92230270D01*
X150527449Y-92269624D01*
X150716782Y-92366095D01*
X150918870Y-92431757D01*
X151128754Y-92465000D01*
X151341246Y-92465000D01*
X151551127Y-92431757D01*
X151551130Y-92431757D01*
X151753217Y-92366095D01*
X151942554Y-92269622D01*
X151996716Y-92230270D01*
X151996717Y-92230270D01*
X151364408Y-91597962D01*
X151427993Y-91580925D01*
X151542007Y-91515099D01*
X151635099Y-91422007D01*
X151700925Y-91307993D01*
X151717962Y-91244408D01*
X152388181Y-91914628D01*
X152421666Y-91975951D01*
X152424500Y-92002300D01*
X152424500Y-92012865D01*
X152424501Y-92012876D01*
X152430908Y-92072483D01*
X152481202Y-92207328D01*
X152481206Y-92207335D01*
X152567452Y-92322544D01*
X152567455Y-92322547D01*
X152682664Y-92408793D01*
X152682671Y-92408797D01*
X152817517Y-92459091D01*
X152817516Y-92459091D01*
X152824444Y-92459835D01*
X152877127Y-92465500D01*
X154672872Y-92465499D01*
X154732483Y-92459091D01*
X154867331Y-92408796D01*
X154982546Y-92322546D01*
X155068796Y-92207331D01*
X155119091Y-92072483D01*
X155125500Y-92012873D01*
X155125500Y-91885258D01*
X157749500Y-91885258D01*
X157749500Y-92114741D01*
X157774446Y-92304215D01*
X157779452Y-92342238D01*
X157812480Y-92465500D01*
X157838842Y-92563887D01*
X157926650Y-92775876D01*
X157926657Y-92775890D01*
X158041392Y-92974617D01*
X158181081Y-93156661D01*
X158181089Y-93156670D01*
X158343330Y-93318911D01*
X158343338Y-93318918D01*
X158525382Y-93458607D01*
X158525385Y-93458608D01*
X158525388Y-93458611D01*
X158724112Y-93573344D01*
X158724117Y-93573346D01*
X158724123Y-93573349D01*
X158815480Y-93611190D01*
X158936113Y-93661158D01*
X159157762Y-93720548D01*
X159385266Y-93750500D01*
X159385273Y-93750500D01*
X159614727Y-93750500D01*
X159614734Y-93750500D01*
X159842238Y-93720548D01*
X160063887Y-93661158D01*
X160275888Y-93573344D01*
X160474612Y-93458611D01*
X160656661Y-93318919D01*
X160656665Y-93318914D01*
X160656670Y-93318911D01*
X160818911Y-93156670D01*
X160818914Y-93156665D01*
X160818919Y-93156661D01*
X160958611Y-92974612D01*
X161073344Y-92775888D01*
X161161158Y-92563887D01*
X161220548Y-92342238D01*
X161250500Y-92114734D01*
X161250500Y-91885266D01*
X161220548Y-91657762D01*
X161161158Y-91436113D01*
X161073344Y-91224112D01*
X160958611Y-91025388D01*
X160958608Y-91025385D01*
X160958607Y-91025382D01*
X160818918Y-90843338D01*
X160818911Y-90843330D01*
X160656670Y-90681089D01*
X160656661Y-90681081D01*
X160474617Y-90541392D01*
X160275890Y-90426657D01*
X160275876Y-90426650D01*
X160063887Y-90338842D01*
X159842238Y-90279452D01*
X159804215Y-90274446D01*
X159614741Y-90249500D01*
X159614734Y-90249500D01*
X159385266Y-90249500D01*
X159385258Y-90249500D01*
X159168715Y-90278009D01*
X159157762Y-90279452D01*
X159100747Y-90294729D01*
X158936112Y-90338842D01*
X158724123Y-90426650D01*
X158724109Y-90426657D01*
X158525382Y-90541392D01*
X158343338Y-90681081D01*
X158181081Y-90843338D01*
X158041392Y-91025382D01*
X157926657Y-91224109D01*
X157926650Y-91224123D01*
X157838842Y-91436112D01*
X157779453Y-91657759D01*
X157779451Y-91657770D01*
X157749500Y-91885258D01*
X155125500Y-91885258D01*
X155125499Y-91115000D01*
X155125499Y-90217129D01*
X155125498Y-90217123D01*
X155125497Y-90217116D01*
X155119091Y-90157517D01*
X155098432Y-90102128D01*
X155068797Y-90022671D01*
X155068793Y-90022664D01*
X154982547Y-89907455D01*
X154982544Y-89907452D01*
X154867335Y-89821206D01*
X154867328Y-89821202D01*
X154732482Y-89770908D01*
X154732483Y-89770908D01*
X154672883Y-89764501D01*
X154672881Y-89764500D01*
X154672873Y-89764500D01*
X154672864Y-89764500D01*
X152877129Y-89764500D01*
X152877123Y-89764501D01*
X152817516Y-89770908D01*
X152682671Y-89821202D01*
X152682664Y-89821206D01*
X152567455Y-89907452D01*
X152567452Y-89907455D01*
X152481206Y-90022664D01*
X152481202Y-90022671D01*
X152430908Y-90157517D01*
X152424501Y-90217116D01*
X152424501Y-90217123D01*
X152424500Y-90217135D01*
X152424500Y-90227690D01*
X152404815Y-90294729D01*
X152388181Y-90315371D01*
X151717962Y-90985590D01*
X151700925Y-90922007D01*
X151635099Y-90807993D01*
X151542007Y-90714901D01*
X151427993Y-90649075D01*
X151364409Y-90632037D01*
X151996716Y-89999728D01*
X151942550Y-89960375D01*
X151753217Y-89863904D01*
X151551129Y-89798242D01*
X151341246Y-89765000D01*
X151128754Y-89765000D01*
X150918872Y-89798242D01*
X150918869Y-89798242D01*
X150716782Y-89863904D01*
X150527439Y-89960380D01*
X150473282Y-89999727D01*
X150473282Y-89999728D01*
X151105591Y-90632037D01*
X151042007Y-90649075D01*
X150927993Y-90714901D01*
X150834901Y-90807993D01*
X150769075Y-90922007D01*
X150752037Y-90985591D01*
X150119728Y-90353282D01*
X150119727Y-90353282D01*
X150080380Y-90407439D01*
X149983904Y-90596782D01*
X149918242Y-90798869D01*
X149918242Y-90798872D01*
X149885000Y-91008753D01*
X147850499Y-91008753D01*
X147850499Y-91000000D01*
X147850499Y-90102129D01*
X147850499Y-90102127D01*
X147844091Y-90042517D01*
X147836688Y-90022669D01*
X147793797Y-89907671D01*
X147793793Y-89907664D01*
X147707547Y-89792455D01*
X147707544Y-89792452D01*
X147592335Y-89706206D01*
X147592328Y-89706202D01*
X147457482Y-89655908D01*
X147457483Y-89655908D01*
X147397883Y-89649501D01*
X147397881Y-89649500D01*
X147397873Y-89649500D01*
X147397864Y-89649500D01*
X145602129Y-89649500D01*
X145602123Y-89649501D01*
X145542516Y-89655908D01*
X145407671Y-89706202D01*
X145407664Y-89706206D01*
X145292455Y-89792452D01*
X145292452Y-89792455D01*
X145206206Y-89907664D01*
X145206202Y-89907671D01*
X145155908Y-90042517D01*
X145154003Y-90060241D01*
X145149501Y-90102125D01*
X145149500Y-90102135D01*
X145149500Y-90112690D01*
X145129815Y-90179729D01*
X145113181Y-90200371D01*
X144442962Y-90870590D01*
X144425925Y-90807007D01*
X144360099Y-90692993D01*
X144267007Y-90599901D01*
X144152993Y-90534075D01*
X144089409Y-90517037D01*
X144721716Y-89884728D01*
X144667550Y-89845375D01*
X144478217Y-89748904D01*
X144276129Y-89683242D01*
X144066246Y-89650000D01*
X143853754Y-89650000D01*
X143643872Y-89683242D01*
X143643869Y-89683242D01*
X143441782Y-89748904D01*
X143252439Y-89845380D01*
X143198282Y-89884727D01*
X143198282Y-89884728D01*
X143830591Y-90517037D01*
X143767007Y-90534075D01*
X143652993Y-90599901D01*
X143559901Y-90692993D01*
X143494075Y-90807007D01*
X143477037Y-90870591D01*
X142844728Y-90238282D01*
X142844727Y-90238282D01*
X142805380Y-90292439D01*
X142708904Y-90481782D01*
X142643242Y-90683869D01*
X142643242Y-90683872D01*
X142610000Y-90893753D01*
X139857603Y-90893753D01*
X139818919Y-90843339D01*
X139818918Y-90843338D01*
X139818911Y-90843330D01*
X139656670Y-90681089D01*
X139656661Y-90681081D01*
X139474617Y-90541392D01*
X139275890Y-90426657D01*
X139275876Y-90426650D01*
X139063887Y-90338842D01*
X138842238Y-90279452D01*
X138804215Y-90274446D01*
X138614741Y-90249500D01*
X138614734Y-90249500D01*
X138385266Y-90249500D01*
X138385258Y-90249500D01*
X138168715Y-90278009D01*
X138157762Y-90279452D01*
X138100747Y-90294729D01*
X137936112Y-90338842D01*
X137724123Y-90426650D01*
X137724109Y-90426657D01*
X137525382Y-90541392D01*
X137343338Y-90681081D01*
X137181081Y-90843338D01*
X137041392Y-91025382D01*
X136926657Y-91224109D01*
X136926650Y-91224123D01*
X136838842Y-91436112D01*
X136779453Y-91657759D01*
X136779451Y-91657770D01*
X136749500Y-91885258D01*
X136016500Y-91885258D01*
X136016500Y-78885258D01*
X136749500Y-78885258D01*
X136749500Y-79114741D01*
X136764124Y-79225815D01*
X136779452Y-79342238D01*
X136822151Y-79501596D01*
X136838842Y-79563887D01*
X136926650Y-79775876D01*
X136926657Y-79775890D01*
X137041392Y-79974617D01*
X137181081Y-80156661D01*
X137181089Y-80156670D01*
X137343330Y-80318911D01*
X137343338Y-80318918D01*
X137525382Y-80458607D01*
X137525385Y-80458608D01*
X137525388Y-80458611D01*
X137724112Y-80573344D01*
X137724117Y-80573346D01*
X137724123Y-80573349D01*
X137815458Y-80611181D01*
X137936113Y-80661158D01*
X138157762Y-80720548D01*
X138385266Y-80750500D01*
X138385273Y-80750500D01*
X138614727Y-80750500D01*
X138614734Y-80750500D01*
X138842238Y-80720548D01*
X139063887Y-80661158D01*
X139275888Y-80573344D01*
X139474612Y-80458611D01*
X139656661Y-80318919D01*
X139656665Y-80318914D01*
X139656670Y-80318911D01*
X139818911Y-80156670D01*
X139818914Y-80156665D01*
X139818919Y-80156661D01*
X139958611Y-79974612D01*
X139995162Y-79911304D01*
X145099500Y-79911304D01*
X145099500Y-80088695D01*
X145134103Y-80262658D01*
X145134106Y-80262667D01*
X145201983Y-80426540D01*
X145201990Y-80426553D01*
X145300535Y-80574034D01*
X145300538Y-80574038D01*
X145425961Y-80699461D01*
X145425965Y-80699464D01*
X145573446Y-80798009D01*
X145573459Y-80798016D01*
X145696363Y-80848923D01*
X145737334Y-80865894D01*
X145737336Y-80865894D01*
X145737341Y-80865896D01*
X145911304Y-80900499D01*
X145911307Y-80900500D01*
X145911309Y-80900500D01*
X146088693Y-80900500D01*
X146088694Y-80900499D01*
X146146682Y-80888964D01*
X146262658Y-80865896D01*
X146262661Y-80865894D01*
X146262666Y-80865894D01*
X146426547Y-80798013D01*
X146460392Y-80775397D01*
X146527069Y-80754520D01*
X146529283Y-80754500D01*
X149970717Y-80754500D01*
X150037756Y-80774185D01*
X150039591Y-80775387D01*
X150073453Y-80798013D01*
X150073456Y-80798014D01*
X150073457Y-80798015D01*
X150182707Y-80843267D01*
X150237334Y-80865894D01*
X150237336Y-80865894D01*
X150237341Y-80865896D01*
X150411304Y-80900499D01*
X150411307Y-80900500D01*
X150411309Y-80900500D01*
X150588693Y-80900500D01*
X150588694Y-80900499D01*
X150646682Y-80888964D01*
X150762658Y-80865896D01*
X150762661Y-80865894D01*
X150762666Y-80865894D01*
X150926547Y-80798013D01*
X151074035Y-80699464D01*
X151112342Y-80661157D01*
X151162319Y-80611181D01*
X151223642Y-80577696D01*
X151293334Y-80582680D01*
X151337681Y-80611181D01*
X151425961Y-80699461D01*
X151425965Y-80699464D01*
X151573446Y-80798009D01*
X151573459Y-80798016D01*
X151696363Y-80848923D01*
X151737334Y-80865894D01*
X151737336Y-80865894D01*
X151737341Y-80865896D01*
X151911304Y-80900499D01*
X151911307Y-80900500D01*
X151911309Y-80900500D01*
X151997640Y-80900500D01*
X152064679Y-80920185D01*
X152085321Y-80936819D01*
X155130302Y-83981800D01*
X155267598Y-84061067D01*
X155420732Y-84102100D01*
X155579268Y-84102100D01*
X157777239Y-84102100D01*
X157844278Y-84121785D01*
X157864915Y-84138414D01*
X157925962Y-84199461D01*
X157925966Y-84199465D01*
X158073446Y-84298009D01*
X158073459Y-84298016D01*
X158196363Y-84348923D01*
X158237334Y-84365894D01*
X158237336Y-84365894D01*
X158237341Y-84365896D01*
X158411304Y-84400499D01*
X158411307Y-84400500D01*
X158411309Y-84400500D01*
X158588693Y-84400500D01*
X158588694Y-84400499D01*
X158646682Y-84388964D01*
X158762658Y-84365896D01*
X158762661Y-84365894D01*
X158762666Y-84365894D01*
X158926547Y-84298013D01*
X159074035Y-84199464D01*
X159199464Y-84074035D01*
X159298013Y-83926547D01*
X159365894Y-83762666D01*
X159400500Y-83588691D01*
X159400500Y-83411309D01*
X159400500Y-83411306D01*
X159400499Y-83411304D01*
X159365896Y-83237341D01*
X159365893Y-83237332D01*
X159298016Y-83073459D01*
X159298009Y-83073446D01*
X159199464Y-82925965D01*
X159199461Y-82925961D01*
X159074038Y-82800538D01*
X159074034Y-82800535D01*
X158926553Y-82701990D01*
X158926540Y-82701983D01*
X158762667Y-82634106D01*
X158762658Y-82634103D01*
X158588694Y-82599500D01*
X158588691Y-82599500D01*
X158411309Y-82599500D01*
X158411306Y-82599500D01*
X158237341Y-82634103D01*
X158237332Y-82634106D01*
X158073459Y-82701983D01*
X158073446Y-82701990D01*
X157925966Y-82800534D01*
X157895443Y-82831057D01*
X157864918Y-82861582D01*
X157803598Y-82895066D01*
X157777239Y-82897900D01*
X155800760Y-82897900D01*
X155733721Y-82878215D01*
X155713079Y-82861581D01*
X152936819Y-80085321D01*
X152903334Y-80023998D01*
X152900500Y-79997640D01*
X152900500Y-79911306D01*
X152900499Y-79911304D01*
X152865896Y-79737341D01*
X152865893Y-79737332D01*
X152798016Y-79573459D01*
X152798009Y-79573446D01*
X152699464Y-79425965D01*
X152699461Y-79425961D01*
X152574038Y-79300538D01*
X152574034Y-79300535D01*
X152426553Y-79201990D01*
X152426540Y-79201983D01*
X152262667Y-79134106D01*
X152262658Y-79134103D01*
X152088694Y-79099500D01*
X152088691Y-79099500D01*
X151911309Y-79099500D01*
X151911306Y-79099500D01*
X151737341Y-79134103D01*
X151737332Y-79134106D01*
X151573459Y-79201983D01*
X151573446Y-79201990D01*
X151425965Y-79300535D01*
X151425961Y-79300538D01*
X151337681Y-79388819D01*
X151276358Y-79422304D01*
X151206666Y-79417320D01*
X151162319Y-79388819D01*
X151074038Y-79300538D01*
X151074034Y-79300535D01*
X150926553Y-79201990D01*
X150926540Y-79201983D01*
X150762667Y-79134106D01*
X150762658Y-79134103D01*
X150588694Y-79099500D01*
X150588691Y-79099500D01*
X150411309Y-79099500D01*
X150411306Y-79099500D01*
X150237341Y-79134103D01*
X150237332Y-79134106D01*
X150073457Y-79201984D01*
X150073456Y-79201985D01*
X150039608Y-79224602D01*
X149972931Y-79245480D01*
X149970717Y-79245500D01*
X146529283Y-79245500D01*
X146462244Y-79225815D01*
X146460392Y-79224602D01*
X146426547Y-79201987D01*
X146426544Y-79201985D01*
X146426543Y-79201985D01*
X146426542Y-79201984D01*
X146262667Y-79134106D01*
X146262658Y-79134103D01*
X146088694Y-79099500D01*
X146088691Y-79099500D01*
X145911309Y-79099500D01*
X145911306Y-79099500D01*
X145737341Y-79134103D01*
X145737332Y-79134106D01*
X145573459Y-79201983D01*
X145573446Y-79201990D01*
X145425965Y-79300535D01*
X145425961Y-79300538D01*
X145300538Y-79425961D01*
X145300535Y-79425965D01*
X145201990Y-79573446D01*
X145201983Y-79573459D01*
X145134106Y-79737332D01*
X145134103Y-79737341D01*
X145099500Y-79911304D01*
X139995162Y-79911304D01*
X140073344Y-79775888D01*
X140161158Y-79563887D01*
X140220548Y-79342238D01*
X140250500Y-79114734D01*
X140250500Y-78885266D01*
X140250499Y-78885258D01*
X157749500Y-78885258D01*
X157749500Y-79114741D01*
X157764124Y-79225815D01*
X157779452Y-79342238D01*
X157822151Y-79501596D01*
X157838842Y-79563887D01*
X157926650Y-79775876D01*
X157926657Y-79775890D01*
X158041392Y-79974617D01*
X158181081Y-80156661D01*
X158181089Y-80156670D01*
X158343330Y-80318911D01*
X158343338Y-80318918D01*
X158525382Y-80458607D01*
X158525385Y-80458608D01*
X158525388Y-80458611D01*
X158724112Y-80573344D01*
X158724117Y-80573346D01*
X158724123Y-80573349D01*
X158815458Y-80611181D01*
X158936113Y-80661158D01*
X159157762Y-80720548D01*
X159385266Y-80750500D01*
X159385273Y-80750500D01*
X159614727Y-80750500D01*
X159614734Y-80750500D01*
X159842238Y-80720548D01*
X160063887Y-80661158D01*
X160275888Y-80573344D01*
X160474612Y-80458611D01*
X160656661Y-80318919D01*
X160656665Y-80318914D01*
X160656670Y-80318911D01*
X160818911Y-80156670D01*
X160818914Y-80156665D01*
X160818919Y-80156661D01*
X160958611Y-79974612D01*
X161073344Y-79775888D01*
X161161158Y-79563887D01*
X161220548Y-79342238D01*
X161250500Y-79114734D01*
X161250500Y-78885266D01*
X161220548Y-78657762D01*
X161161158Y-78436113D01*
X161073344Y-78224112D01*
X160958611Y-78025388D01*
X160958608Y-78025385D01*
X160958607Y-78025382D01*
X160818918Y-77843338D01*
X160818911Y-77843330D01*
X160656670Y-77681089D01*
X160656661Y-77681081D01*
X160474617Y-77541392D01*
X160275890Y-77426657D01*
X160275876Y-77426650D01*
X160063887Y-77338842D01*
X159842238Y-77279452D01*
X159804215Y-77274446D01*
X159614741Y-77249500D01*
X159614734Y-77249500D01*
X159385266Y-77249500D01*
X159385258Y-77249500D01*
X159168715Y-77278009D01*
X159157762Y-77279452D01*
X159064076Y-77304554D01*
X158936112Y-77338842D01*
X158724123Y-77426650D01*
X158724109Y-77426657D01*
X158525382Y-77541392D01*
X158343338Y-77681081D01*
X158181081Y-77843338D01*
X158041392Y-78025382D01*
X157926657Y-78224109D01*
X157926650Y-78224123D01*
X157838842Y-78436112D01*
X157779453Y-78657759D01*
X157779451Y-78657770D01*
X157749500Y-78885258D01*
X140250499Y-78885258D01*
X140220548Y-78657762D01*
X140161158Y-78436113D01*
X140073344Y-78224112D01*
X139958611Y-78025388D01*
X139958608Y-78025385D01*
X139958607Y-78025382D01*
X139818918Y-77843338D01*
X139818911Y-77843330D01*
X139656670Y-77681089D01*
X139656661Y-77681081D01*
X139474617Y-77541392D01*
X139275890Y-77426657D01*
X139275876Y-77426650D01*
X139063887Y-77338842D01*
X138842238Y-77279452D01*
X138804215Y-77274446D01*
X138614741Y-77249500D01*
X138614734Y-77249500D01*
X138385266Y-77249500D01*
X138385258Y-77249500D01*
X138168715Y-77278009D01*
X138157762Y-77279452D01*
X138064076Y-77304554D01*
X137936112Y-77338842D01*
X137724123Y-77426650D01*
X137724109Y-77426657D01*
X137525382Y-77541392D01*
X137343338Y-77681081D01*
X137181081Y-77843338D01*
X137041392Y-78025382D01*
X136926657Y-78224109D01*
X136926650Y-78224123D01*
X136838842Y-78436112D01*
X136779453Y-78657759D01*
X136779451Y-78657770D01*
X136749500Y-78885258D01*
X136016500Y-78885258D01*
X136016500Y-76140500D01*
X136036185Y-76073461D01*
X136088989Y-76027706D01*
X136140500Y-76016500D01*
X161859500Y-76016500D01*
X161926539Y-76036185D01*
G37*
%TD.AperFunction*%
%TD*%
M02*
